<svg width="636" height="626" viewBox="0 0 636 626" fill="none" xmlns="http://www.w3.org/2000/svg">
<mask id="mask0_917_114" style="mask-type:luminance" maskUnits="userSpaceOnUse" x="25" y="82" width="586" height="463">
<path d="M610.825 82.1625H25.8374V544.49H610.825V82.1625Z" fill="white"/>
</mask>
<g mask="url(#mask0_917_114)">
<path fill-rule="evenodd" clip-rule="evenodd" d="M450.437 284.597C435.015 291.35 423.196 308.188 417.776 324.86C414.538 334.815 414.557 347.37 414.577 360.07C414.588 367.713 414.6 375.408 413.902 382.622C413.116 390.792 411.423 398.343 407.785 404.504L409.64 406.312H409.646C419.315 406.644 431.157 406.539 442.999 406.434C454.836 406.329 466.673 406.224 476.338 406.554C478.365 406.62 480.503 406.667 482.274 405.692C482.284 405.686 482.293 405.681 482.303 405.677C482.311 405.672 482.32 405.668 482.328 405.662C485.828 403.695 486.153 398.923 486.038 394.945C485.871 388.915 485.703 381.855 485.536 374.793C485.367 367.693 485.199 360.589 485.03 354.523L485.078 354.5C490.51 365.093 495.462 375.934 498.055 387.484C501.381 402.283 500.431 418.642 492.106 431.397C491.282 432.658 490.402 433.875 489.466 435.049C486.859 438.348 483.892 441.372 480.921 444.398C477.864 447.512 474.804 450.63 472.131 454.055C469.845 456.962 467.986 460.173 466.609 463.59C465.789 465.622 465.202 467.739 464.862 469.9C464.128 474.007 464.76 478.237 466.662 481.963C467.17 482.915 467.765 483.819 468.439 484.664C473.77 491.339 483.625 493.827 492.503 493.632C519.543 493.032 543.862 473.272 553.906 448.56C563.951 423.847 561.208 395.371 551.058 370.694C543.663 352.716 532.631 336.504 520.074 321.474C515.395 315.874 510.512 310.439 505.524 305.139C495.845 294.847 484.62 284.426 470.743 282.033C470.017 281.903 469.279 281.803 468.54 281.72C462.353 281.064 456.1 282.057 450.437 284.597ZM501.596 314.684C501.177 314.42 500.621 314.541 500.353 314.954C500.085 315.366 500.207 315.914 500.627 316.178C536.748 338.903 557.051 383.768 550.055 425.398C549.973 425.881 550.305 426.337 550.796 426.417C551.286 426.497 551.75 426.17 551.831 425.687C558.945 383.358 538.324 337.792 501.596 314.684Z" fill="url(#paint0_linear_917_114)"/>
<path fill-rule="evenodd" clip-rule="evenodd" d="M408.835 269.4C407.891 273.284 406.949 277.167 406.119 281.064C405.867 282.246 405.64 283.451 405.445 284.693C403.313 297.612 403.686 313.515 405.27 329.556C407.156 348.657 410.763 367.95 413.913 382.622C414.608 375.416 414.595 367.729 414.582 360.095C414.561 347.386 414.54 334.821 417.779 324.86C423.196 308.188 435.015 291.35 450.44 284.597C455.813 275.639 451.4 266.24 448.766 261.448C447.615 259.356 446.283 257.364 444.952 255.372C443.236 252.804 441.52 250.237 440.194 247.458C434.39 235.276 436.866 221.015 439.45 207.798L439.384 207.472C443.493 206.695 447.237 204.632 450.056 201.588C455.819 213.345 467.277 222.089 480.104 225.225C474.57 242.645 471.418 263.682 470.771 281.891L470.746 282.033C484.621 284.425 495.846 294.847 505.527 305.139C510.515 310.438 515.401 315.873 520.077 321.474L520.509 321.126C522.124 309.073 517.933 295.028 513.921 281.582C511.712 274.181 509.559 266.962 508.457 260.357C507.161 252.598 507.331 244.673 507.5 236.762C507.708 227.087 507.915 217.431 505.438 208.125C500.227 188.582 481.999 172.719 461.519 171.307C441.038 169.895 420.168 183.942 415.276 203.57C413.419 211.01 413.724 218.692 414.029 226.39C414.187 230.387 414.345 234.389 414.202 238.362C413.821 248.875 411.328 259.137 408.835 269.4ZM467.61 176.578C467.139 176.42 466.627 176.668 466.467 177.131C466.306 177.594 466.557 178.098 467.028 178.255C484.715 184.2 498.243 200.752 500.353 219.029C500.409 219.515 500.855 219.864 501.349 219.809C501.843 219.754 502.198 219.315 502.142 218.829C499.954 199.871 485.955 182.744 467.61 176.578Z" fill="#171717"/>
<path fill-rule="evenodd" clip-rule="evenodd" d="M369.337 324.7C372.838 333.837 375.492 343.267 377.266 352.875C381.304 374.205 381.759 399.438 382.153 421.237L382.169 422.134L378.127 427.025H362.734V404.504H341.972V427.025H256.17V442.451H322.909V461.853H322.699L155.616 460.027V459.838C156.697 451.922 157.939 444.033 159.343 436.171L159.356 436.1C148.425 433.985 138 430.068 130.089 422.553C120.329 413.284 115.863 399.849 113.666 386.674C109.492 361.625 112.672 334.684 126.595 313.315C137.495 296.572 154.392 284.13 172.927 276.219C191.461 268.309 211.024 264.681 231.16 263.056L231.562 263.068C231.491 265.13 231.467 267.19 231.491 269.248L231.503 269.425C252.066 268.049 272.65 267.036 293.254 266.388L293.237 265.922C293.35 264.683 293.422 263.434 293.458 262.188L293.608 262.194C300.963 262.592 308.208 264.132 315.073 266.758C328.998 272.022 341.477 281.356 350.967 292.788C358.876 302.321 364.871 313.186 369.337 324.7ZM253.589 356.493C253.646 356.464 253.702 356.435 253.759 356.407C253.934 356.318 254.108 356.229 254.282 356.142L254.408 356.349C246.936 360.833 240.634 366.976 236.005 374.285L235.663 374.422C237.698 377.281 238.364 381.138 238.754 384.713C239.27 389.457 239.574 394.217 239.666 398.993L240.597 398.976C248.028 407.386 258.534 412.567 269.828 413.387C273.597 413.641 278.357 412.666 279.235 409.056C280.052 405.695 276.738 402.912 273.245 401.896L273.341 401.589L316.276 404.543V362.281L288.923 360.396V360.378C292.669 360.568 297.005 358.6 297.255 354.961C297.404 352.686 295.814 350.565 293.797 349.455C292.369 348.715 290.806 348.257 289.199 348.108L289.248 347.771C289.007 345.484 287.326 343.511 285.262 342.43C283.142 341.436 280.807 340.968 278.461 341.065C273.222 341.16 268.109 342.661 263.672 345.407C259.236 348.153 255.646 352.038 253.288 356.645C253.389 356.594 253.489 356.544 253.589 356.493ZM172.341 325.654C172.789 325.868 172.976 326.398 172.758 326.839C169.134 334.195 166.54 342.001 165.047 350.044C164.56 352.668 164.269 355.217 165.202 357.399C165.967 359.186 167.431 360.495 169.295 361.487C171.164 362.482 173.376 363.126 175.533 363.606C188.65 366.516 202.203 366.985 215.495 364.989C215.986 364.916 216.445 365.248 216.52 365.732C216.595 366.216 216.257 366.668 215.766 366.741C202.253 368.771 188.473 368.293 175.137 365.335H175.137C172.922 364.842 170.522 364.155 168.438 363.045C166.348 361.933 164.517 360.364 163.543 358.086C162.38 355.367 162.792 352.333 163.275 349.726C164.798 341.525 167.443 333.566 171.138 326.065C171.355 325.625 171.894 325.441 172.341 325.654ZM336.3 283.22C335.928 282.896 335.359 282.93 335.03 283.298C334.7 283.665 334.736 284.224 335.109 284.548C354.337 301.264 366.856 324.198 370.403 349.206C370.471 349.691 370.927 350.029 371.419 349.961C371.912 349.894 372.255 349.446 372.187 348.961C368.58 323.534 355.851 300.215 336.3 283.22Z" fill="#171717"/>
<path d="M538.566 494.199L560.204 517.937H524.725L538.566 494.199Z" fill="#F59E0B"/>
<path d="M491.965 517.937H426.714V526.692H491.965V517.937Z" fill="url(#paint1_linear_917_114)"/>
<path d="M482.517 405.964C486.657 415.075 488.938 424.898 489.234 434.874L489.474 435.052C484.186 441.745 477.41 447.305 472.139 454.057C469.853 456.965 467.994 460.175 466.617 463.593L466.154 463.416L393.062 462.591V462.438C394.01 455.502 394.971 449.387 395.919 442.451H430.942V427.025L409.656 406.313C428.989 406.975 457.014 405.894 476.347 406.555C478.376 406.62 480.513 406.667 482.284 405.693C482.301 405.681 482.319 405.675 482.337 405.663L482.517 405.964Z" fill="#171717"/>
<path d="M393.665 483.742V530.863H352.141V483.742H370.364H393.665Z" fill="#171717"/>
<path d="M370.363 462.338V483.742H352.14H343.557H322.909V461.853V442.451H370.363V462.338Z" fill="url(#paint2_linear_917_114)"/>
<path d="M367.609 267.293C378.174 278.093 389.65 284.473 404.884 284.597L405.442 284.692C403.311 297.612 403.683 313.514 405.268 329.555L404.998 329.579C394.115 330.211 379.548 328.536 369.338 324.699C364.873 313.185 358.876 302.32 350.965 292.79C341.475 281.358 328.996 272.024 315.071 266.76L315.185 266.471C312.33 252.858 310.865 238.998 310.813 225.097C310.806 223 310.908 220.69 312.349 219.148C313.993 217.376 316.743 217.269 319.173 217.287L321.772 217.305C328.866 217.352 335.958 217.399 343.05 217.446C343.32 217.446 343.59 217.452 343.86 217.452C345.919 217.464 348.182 217.547 349.724 218.894C351.759 220.666 351.651 223.756 351.574 226.433C351.387 233.947 352.706 241.423 355.458 248.435C358.21 255.446 362.339 261.854 367.609 267.293Z" fill="url(#paint3_linear_917_114)"/>
<path d="M316.27 362.281V404.54L273.336 401.586V359.327L288.918 360.396L316.27 362.281Z" fill="url(#paint4_linear_917_114)"/>
<path d="M293.323 255.956C293.478 258.029 293.523 260.11 293.456 262.188C293.419 263.435 293.348 264.682 293.234 265.922L293.252 266.389C272.645 267.041 252.061 268.053 231.5 269.426L231.488 269.248C231.464 267.192 231.488 265.133 231.56 263.069C231.626 261.125 231.737 259.186 231.891 257.249C231.892 255.879 232.247 254.531 232.923 253.332C234.045 251.69 236.207 251.064 238.217 250.969C240.228 250.875 242.251 251.182 244.237 250.881L244.526 250.497C247.394 252.493 250.487 254.155 253.745 255.448C260.66 258.248 268.289 259.737 275.674 258.543C280.795 257.744 285.577 255.517 289.454 252.127L289.801 252.506C290.596 251.854 291.89 252.251 292.508 253.06C293.058 253.928 293.341 254.933 293.323 255.956Z" fill="url(#paint5_linear_917_114)"/>
<path d="M267.479 216.893C271.284 217.885 275.216 218.452 279.046 219.386C282.477 220.133 285.754 221.454 288.733 223.291C289.985 224.103 291.127 225.07 292.13 226.168C297.106 231.662 297.454 240.383 293.793 246.804C292.645 248.796 291.179 250.593 289.453 252.127C285.576 255.517 280.795 257.744 275.673 258.543C268.291 259.737 260.662 258.248 253.745 255.448C250.487 254.155 247.393 252.493 244.525 250.497C240.954 248.058 237.971 244.878 235.784 241.18C231.948 234.451 231.774 225.359 236.793 219.433C238.628 217.313 240.957 215.662 243.581 214.618C246.101 213.598 248.787 213.031 251.51 212.946C257.044 212.763 262.5 214.329 267.584 216.485L267.479 216.893ZM265.312 230.316C265.792 229.39 266.037 228.364 266.027 227.325C266.016 226.286 265.75 225.265 265.252 224.349C263.343 220.692 258.547 219.386 254.634 219.268C252.376 219.14 250.155 219.869 248.427 221.307C247.583 222.032 246.957 222.973 246.621 224.026C246.284 225.078 246.248 226.202 246.519 227.273C247.335 229.979 250.204 231.512 252.905 232.461C255.033 233.319 257.325 233.71 259.622 233.607C261.903 233.405 264.202 232.283 265.312 230.316Z" fill="#171717"/>
<path d="M282.946 522.314H258.931V543.376H282.946V522.314Z" fill="#171717"/>
<path d="M263.054 365.553C266.326 361.122 271.534 357.728 277.099 357.956C280.965 358.11 284.578 359.953 288.428 360.343C288.59 360.361 288.753 360.373 288.92 360.378V360.396L273.338 359.327V401.586L273.242 401.893C272.778 401.761 272.304 401.658 271.826 401.586C267.889 401.013 263.585 401.598 260.17 399.583C257.162 397.805 255.553 394.296 255.267 390.852C254.981 387.407 255.814 383.981 256.714 380.643C258.133 375.349 259.784 369.984 263.054 365.553Z" fill="#171717"/>
<path d="M248.487 155.479C253.889 155.527 259.255 156.366 264.658 156.49C270.06 156.613 275.66 155.946 280.311 153.246C284.21 150.857 287.332 147.419 289.309 143.339C289.648 142.515 290.157 141.768 290.803 141.147C291.136 140.846 291.565 140.667 292.016 140.641C292.467 140.614 292.915 140.74 293.282 140.999C293.906 141.561 293.888 142.517 293.798 143.347C293.26 148.076 291.751 152.649 289.363 156.787C294.258 152.535 300.299 149.769 306.757 148.823C306.901 152.114 305.371 155.304 303.222 157.827C301.074 160.35 298.336 162.306 295.629 164.237C300.957 162.881 306.371 161.879 311.836 161.237C313.768 161.007 316.247 161.125 316.973 162.903C317.693 164.664 316.007 166.442 314.411 167.511C307.592 172.076 299.429 174.146 291.152 174.778C288.804 174.961 286.452 175.02 284.117 174.991C273.546 174.855 263.079 172.976 252.533 172.22C249.586 172.007 246.296 171.995 244.106 173.939C241.572 176.184 241.572 180.025 241.77 183.374C242.287 192.348 242.809 201.326 243.337 210.305L243.253 210.311C240.5 212.945 237.151 214.897 233.481 216.007C233.042 214.985 232.93 213.858 233.157 212.772C233.384 211.686 233.941 210.694 234.754 209.927C232.962 211.458 230.893 212.644 228.655 213.424C227.899 213.69 226.975 213.881 226.362 213.366C225.522 212.674 225.948 211.351 226.411 210.37C230.435 201.819 232.073 192.368 231.158 182.987C230.774 179.135 229.966 175.313 229.94 171.445C229.914 167.578 230.787 163.523 233.355 160.587C236.945 156.466 242.977 155.427 248.487 155.479Z" fill="#171717"/>
<path d="M229.273 483.742H180.972V522.941H229.273V483.742Z" fill="#F59E0B"/>
<path d="M139.023 483.742L154.281 506.068L116.995 507.303L139.023 483.742Z" fill="url(#paint6_linear_917_114)"/>
<path d="M264.874 212.982C265.984 212.621 267.184 212.869 268.348 212.958C269.512 213.047 270.833 212.905 271.572 212.013C272.078 211.243 272.298 210.325 272.196 209.413C272.1 202.512 269.754 195.76 269.612 188.889C269.595 188.221 269.606 187.542 269.636 186.868C269.581 186 269.877 185.147 270.459 184.493C271.085 184.053 271.845 183.837 272.614 183.878C276.078 183.72 279.549 183.996 282.944 184.699" stroke="#171717" stroke-width="2.718" stroke-linecap="round" stroke-linejoin="round"/>
<path d="M261.092 192.901C260.697 192.34 260.176 191.876 259.569 191.546C258.962 191.216 258.286 191.028 257.593 190.998C256.9 190.968 256.21 191.095 255.576 191.371C254.942 191.647 254.381 192.063 253.937 192.587" stroke="#171717" stroke-width="2.718" stroke-linecap="round" stroke-linejoin="round"/>
<path d="M276.056 192.54C276.445 192.121 276.922 191.791 277.454 191.572C277.987 191.354 278.561 191.253 279.138 191.276C279.714 191.298 280.278 191.446 280.791 191.706C281.303 191.966 281.752 192.333 282.106 192.782" stroke="#171717" stroke-width="2.718" stroke-linecap="round" stroke-linejoin="round"/>
<path d="M267.584 216.485C262.5 214.329 257.044 212.763 251.51 212.946C248.787 213.031 246.101 213.598 243.581 214.618C240.957 215.662 238.628 217.313 236.793 219.433C231.774 225.359 231.948 234.451 235.784 241.18C237.972 244.878 240.957 248.058 244.529 250.497C247.397 252.493 250.491 254.155 253.749 255.448C260.664 258.248 268.293 259.737 275.677 258.543C280.799 257.744 285.58 255.517 289.457 252.127C291.183 250.593 292.649 248.796 293.797 246.804C297.458 240.383 297.109 231.662 292.134 226.168C291.131 225.07 289.989 224.103 288.737 223.291C285.758 221.454 282.481 220.133 279.05 219.386C275.22 218.452 271.288 217.886 267.483 216.893C266.456 216.632 265.448 216.337 264.445 215.995" stroke="#171717" stroke-width="2.718" stroke-linecap="round" stroke-linejoin="round"/>
<path d="M254.633 219.268C252.376 219.14 250.154 219.869 248.427 221.306C247.582 222.032 246.957 222.973 246.62 224.025C246.284 225.078 246.248 226.201 246.518 227.273C247.335 229.979 250.204 231.511 252.905 232.46C255.032 233.318 257.324 233.709 259.621 233.606C261.902 233.405 264.201 232.283 265.311 230.315C265.791 229.39 266.036 228.364 266.026 227.324C266.016 226.285 265.749 225.264 265.251 224.348C263.344 220.691 258.547 219.386 254.633 219.268Z" stroke="#171717" stroke-width="2.718" stroke-linecap="round" stroke-linejoin="round"/>
<path d="M288.835 223.149C291.049 207.123 291.825 190.935 291.153 174.775C291.153 174.716 291.148 174.651 291.148 174.591" stroke="#171717" stroke-width="2.718" stroke-linecap="round" stroke-linejoin="round"/>
<path d="M243.602 214.89C243.596 214.801 243.59 214.706 243.584 214.618C243.5 213.176 243.416 211.741 243.338 210.299C242.808 201.325 242.285 192.348 241.771 183.368C241.572 180.019 241.572 176.179 244.106 173.933C246.297 171.99 249.586 172.001 252.533 172.214C263.079 172.97 273.547 174.849 284.117 174.985C286.452 175.015 288.805 174.955 291.152 174.772C299.43 174.14 307.592 172.067 314.411 167.505C316.007 166.436 317.694 164.658 316.974 162.898C316.245 161.119 313.769 161.001 311.836 161.232C306.372 161.873 300.957 162.875 295.63 164.231C298.337 162.3 301.08 160.344 303.223 157.821C305.366 155.298 306.902 152.108 306.758 148.817C300.3 149.763 294.258 152.529 289.364 156.781C291.751 152.643 293.26 148.071 293.799 143.341C293.889 142.513 293.907 141.557 293.283 140.993C292.915 140.735 292.468 140.608 292.017 140.635C291.565 140.662 291.137 140.84 290.804 141.141C290.157 141.762 289.648 142.509 289.309 143.333C287.332 147.413 284.21 150.851 280.312 153.24C275.66 155.941 270.06 156.602 264.658 156.484C259.256 156.365 253.89 155.521 248.488 155.474C242.978 155.421 236.945 156.46 233.356 160.572C230.787 163.507 229.923 167.555 229.941 171.431C229.958 175.306 230.775 179.125 231.159 182.973C232.074 192.353 230.435 201.805 226.411 210.356C225.948 211.334 225.523 212.66 226.363 213.351C226.975 213.865 227.9 213.677 228.656 213.41C230.893 212.631 232.962 211.444 234.754 209.913C233.941 210.68 233.384 211.672 233.157 212.758C232.93 213.844 233.043 214.971 233.482 215.992C237.151 214.883 240.501 212.931 243.254 210.297" stroke="#171717" stroke-width="2.718" stroke-linecap="round" stroke-linejoin="round"/>
<path d="M244.237 250.881C242.25 251.182 240.222 250.869 238.217 250.969C236.212 251.07 234.043 251.69 232.923 253.332C232.247 254.53 231.892 255.879 231.891 257.249C231.735 259.187 231.624 261.127 231.56 263.069C231.488 265.131 231.464 267.191 231.488 269.248" stroke="#171717" stroke-width="2.718" stroke-linecap="round" stroke-linejoin="round"/>
<path d="M289.801 252.506C290.596 251.853 291.89 252.251 292.508 253.06C293.058 253.928 293.342 254.933 293.324 255.956C293.479 258.029 293.523 260.11 293.457 262.188C293.421 263.435 293.349 264.682 293.235 265.922" stroke="#171717" stroke-width="2.718" stroke-linecap="round" stroke-linejoin="round"/>
<path d="M231.158 263.057C211.018 264.682 191.459 268.309 172.924 276.22C154.39 284.13 137.493 296.573 126.593 313.316C112.667 334.684 109.492 361.625 113.664 386.675C115.861 399.847 120.327 413.285 130.086 422.554C137.997 430.069 148.423 433.986 159.354 436.101C164.514 437.065 169.727 437.73 174.966 438.092C190.663 439.275 206.438 439.006 222.083 437.288C225.967 436.863 230.06 436.26 233.086 433.832C237.113 430.595 238.182 425.041 238.734 419.955C239.494 412.994 239.803 405.992 239.661 398.993C239.573 394.226 239.269 389.465 238.749 384.712C238.359 381.138 237.693 377.278 235.658 374.421C235.083 373.61 234.388 372.889 233.593 372.282C229.386 369.08 223.437 370.019 218.185 370.858C205.328 372.909 192.263 373.393 179.284 372.3C174.477 371.892 168.894 370.74 166.823 366.451" stroke="#171717" stroke-width="2.718" stroke-linecap="round" stroke-linejoin="round"/>
<path d="M293.607 262.194C300.961 262.593 308.206 264.133 315.072 266.759C328.997 272.022 341.476 281.357 350.965 292.789C358.877 302.318 364.873 313.183 369.338 324.698C372.84 333.835 375.494 343.264 377.268 352.872C381.361 374.495 381.773 400.13 382.17 422.131V422.279" stroke="#171717" stroke-width="2.718" stroke-linecap="round" stroke-linejoin="round"/>
<path d="M236.002 374.285C240.631 366.976 246.934 360.833 254.405 356.349C264.185 350.357 275.58 347.422 287.088 347.93C287.79 347.966 288.492 348.019 289.195 348.107C290.802 348.257 292.364 348.715 293.792 349.455C295.809 350.563 297.4 352.686 297.25 354.961C297.003 358.6 292.664 360.569 288.918 360.378C288.751 360.373 288.587 360.361 288.426 360.343C284.579 359.951 280.966 358.11 277.097 357.956C271.532 357.732 266.323 361.122 263.052 365.553C259.782 369.984 258.131 375.349 256.708 380.643C255.808 383.981 254.968 387.407 255.261 390.852C255.555 394.296 257.158 397.805 260.164 399.583C263.579 401.598 267.883 401.013 271.82 401.586C272.299 401.659 272.772 401.761 273.236 401.893C276.73 402.909 280.043 405.692 279.227 409.054C278.351 412.663 273.591 413.638 269.819 413.384C258.526 412.564 248.02 407.384 240.588 398.973" stroke="#171717" stroke-width="2.718" stroke-linecap="round" stroke-linejoin="round"/>
<path d="M289.242 347.771C289.002 345.484 287.321 343.511 285.257 342.43C283.137 341.436 280.802 340.967 278.456 341.065C273.218 341.161 268.105 342.663 263.67 345.408C259.235 348.153 255.646 352.039 253.288 356.645C253.62 356.479 253.951 356.307 254.282 356.142" stroke="#171717" stroke-width="2.718" stroke-linecap="round" stroke-linejoin="round"/>
<path d="M315.185 266.472C312.33 252.859 310.865 238.999 310.813 225.099C310.806 223.001 310.908 220.691 312.349 219.15C313.993 217.377 316.743 217.27 319.173 217.289L321.772 217.306C328.866 217.353 335.958 217.401 343.05 217.448C343.32 217.448 343.59 217.454 343.86 217.454C345.919 217.465 348.182 217.548 349.724 218.895C351.759 220.668 351.651 223.757 351.574 226.434C351.386 233.947 352.706 241.423 355.457 248.435C358.208 255.446 362.336 261.854 367.606 267.293C378.17 278.093 389.647 284.473 404.88 284.597" stroke="#171717" stroke-width="2.718" stroke-linecap="round" stroke-linejoin="round"/>
<path d="M452.637 232.607C452.171 232.716 451.739 232.938 451.382 233.252C451.025 233.565 450.752 233.962 450.589 234.404C450.426 234.848 450.378 235.324 450.448 235.79C450.519 236.256 450.707 236.698 450.994 237.075C451.28 237.453 451.658 237.754 452.093 237.952C452.528 238.149 453.006 238.237 453.483 238.208C453.962 238.179 454.425 238.033 454.831 237.784C455.237 237.534 455.575 237.19 455.812 236.781" stroke="#171717" stroke-width="2.718" stroke-linecap="round" stroke-linejoin="round"/>
<path d="M458.052 251.501C458.854 251.697 459.688 251.73 460.502 251.599C461.317 251.469 462.097 251.177 462.794 250.741C463.491 250.305 464.091 249.735 464.557 249.064C465.023 248.394 465.347 247.636 465.508 246.84" stroke="#171717" stroke-width="2.718" stroke-linecap="round" stroke-linejoin="round"/>
<path d="M447.925 222.263C448.069 220.733 448.208 219.204 448.345 217.678" stroke="#171717" stroke-width="2.718" stroke-linecap="round" stroke-linejoin="round"/>
<path d="M466.118 224.348C465.975 222.954 465.836 221.566 465.692 220.175" stroke="#171717" stroke-width="2.718" stroke-linecap="round" stroke-linejoin="round"/>
<path d="M442.404 215.188C443.672 213.971 445.304 213.19 447.059 212.961C448.814 212.732 450.597 213.068 452.142 213.917" stroke="#171717" stroke-width="2.718" stroke-linecap="round" stroke-linejoin="round"/>
<path d="M430.944 207.257C433.704 207.958 436.59 208.032 439.383 207.475C443.493 206.699 447.237 204.634 450.055 201.591C455.819 213.348 467.277 222.092 480.103 225.228C483.977 226.193 487.969 226.615 491.962 226.481" stroke="#171717" stroke-width="2.718" stroke-linecap="round" stroke-linejoin="round"/>
<path d="M439.45 207.8C436.866 221.016 434.39 235.278 440.194 247.46C442.547 252.393 446.131 256.659 448.765 261.45C451.4 266.242 455.812 275.641 450.44 284.599" stroke="#171717" stroke-width="2.718" stroke-linecap="round" stroke-linejoin="round"/>
<path d="M480.201 224.927C480.171 225.027 480.134 225.128 480.105 225.228C474.571 242.645 471.419 263.683 470.771 281.894" stroke="#171717" stroke-width="2.718" stroke-linecap="round" stroke-linejoin="round"/>
<path d="M413.909 382.622C410.758 367.95 407.152 348.657 405.266 329.556C403.682 313.515 403.309 297.612 405.441 284.693C405.639 283.454 405.867 282.247 406.118 281.066C409.138 266.869 413.675 252.855 414.201 238.363C414.621 226.737 412.454 214.873 415.275 203.571C420.167 183.944 441.037 169.896 461.518 171.308C481.998 172.72 500.226 188.583 505.437 208.126C509.939 225.04 505.575 243.107 508.456 260.358C511.559 278.962 523.011 302.44 520.508 321.127" stroke="#171717" stroke-width="2.718" stroke-linecap="round" stroke-linejoin="round"/>
<path d="M407.793 404.504C411.431 398.343 413.124 390.792 413.909 382.622C415.758 363.421 412.589 340.805 417.775 324.86C423.195 308.188 435.014 291.35 450.436 284.597C456.099 282.057 462.352 281.064 468.539 281.72C469.278 281.803 470.016 281.903 470.742 282.033C484.619 284.426 495.844 294.847 505.523 305.139C510.511 310.439 515.394 315.874 520.073 321.474C532.63 336.504 543.662 352.716 551.057 370.694C561.207 395.371 563.95 423.847 553.906 448.56C543.861 473.272 519.542 493.032 492.502 493.632C483.624 493.827 473.769 491.339 468.438 484.664C467.763 483.819 467.168 482.915 466.662 481.963C464.759 478.237 464.128 474.007 464.861 469.9C465.201 467.739 465.788 465.622 466.608 463.59C467.985 460.173 469.844 456.962 472.13 454.055C477.4 447.302 484.177 441.743 489.465 435.049C490.401 433.875 491.281 432.658 492.106 431.397C500.431 418.642 501.381 402.283 498.054 387.484C495.461 375.934 490.509 365.093 485.077 354.5C483.546 351.517 481.98 348.55 480.413 345.596" stroke="#171717" stroke-width="2.718" stroke-linecap="round" stroke-linejoin="round"/>
<path d="M409.656 406.313C428.989 406.975 457.014 405.894 476.347 406.555C478.376 406.62 480.513 406.667 482.283 405.693C482.301 405.681 482.319 405.675 482.337 405.663C485.836 403.696 486.161 398.922 486.047 394.946C485.711 382.852 485.375 366.623 485.039 354.524" stroke="#171717" stroke-width="2.718" stroke-linecap="round" stroke-linejoin="round"/>
<path d="M546.07 464.234L609.748 464.972" stroke="#171717" stroke-width="2.718" stroke-linecap="round" stroke-linejoin="round"/>
<path d="M370.639 462.338L393.064 462.591L466.154 463.413" stroke="#171717" stroke-width="2.718" stroke-linecap="round" stroke-linejoin="round"/>
<path d="M26.7498 458.615L155.613 460.027L322.699 461.853" stroke="#171717" stroke-width="2.718" stroke-linecap="round" stroke-linejoin="round"/>
<path d="M322.91 442.451H256.17V427.025H341.973H362.735H378.13H430.945V442.451H395.921H370.364" stroke="#171717" stroke-width="2.718" stroke-linecap="round" stroke-linejoin="round"/>
<path d="M322.909 483.742V461.853V442.451H370.363V462.338V483.742" stroke="#171717" stroke-width="2.718" stroke-linecap="round" stroke-linejoin="round"/>
<path d="M352.14 483.742H343.557" stroke="#171717" stroke-width="2.718" stroke-linecap="round" stroke-linejoin="round"/>
<path d="M343.557 483.742V530.863H298.756V483.742H322.91H343.557Z" stroke="#171717" stroke-width="2.718" stroke-linecap="round" stroke-linejoin="round"/>
<path d="M352.141 483.742H370.364H393.665V530.863H352.141V483.742Z" stroke="#171717" stroke-width="2.718" stroke-linecap="round" stroke-linejoin="round"/>
<path d="M288.918 360.396L316.27 362.281V404.54L273.336 401.586V359.327L288.918 360.396Z" stroke="#171717" stroke-width="2.718" stroke-linecap="round" stroke-linejoin="round"/>
<path d="M229.273 483.742H180.972V522.941H229.273V483.742Z" stroke="#171717" stroke-width="2.718" stroke-linecap="round" stroke-linejoin="round"/>
<path d="M274.543 483.742H253.288V504.656H274.543V483.742Z" stroke="#171717" stroke-width="2.718" stroke-linecap="round" stroke-linejoin="round"/>
<path d="M491.965 517.937H426.714V526.692H491.965V517.937Z" stroke="#171717" stroke-width="2.718" stroke-linecap="round" stroke-linejoin="round"/>
<path d="M430.946 427.025L409.656 406.312H409.65L407.795 404.504L401.649 398.526L382.171 422.134L378.131 427.025" stroke="#171717" stroke-width="2.718" stroke-linecap="round" stroke-linejoin="round"/>
<path d="M362.735 427.025V404.504H341.973V427.025" stroke="#171717" stroke-width="2.718" stroke-linecap="round" stroke-linejoin="round"/>
<path d="M282.946 522.314H258.931V543.376H282.946V522.314Z" stroke="#171717" stroke-width="2.718" stroke-linecap="round" stroke-linejoin="round"/>
<path d="M524.725 517.937L538.566 494.199L560.204 517.937H524.725Z" stroke="#171717" stroke-width="2.718" stroke-linecap="round" stroke-linejoin="round"/>
<path d="M154.281 506.068L139.023 483.742L116.995 507.303L154.281 506.068Z" stroke="#171717" stroke-width="2.718" stroke-linecap="round" stroke-linejoin="round"/>
<path d="M369.182 324.641C369.236 324.659 369.284 324.683 369.338 324.7C379.548 328.535 394.115 330.212 404.998 329.581" stroke="#171717" stroke-width="2.718" stroke-linecap="round" stroke-linejoin="round"/>
<path d="M331.618 198.672C332.128 192.67 332.637 186.669 333.142 180.671C333.268 179.164 333.286 177.386 332.073 176.458C330.855 175.519 328.96 176.039 327.926 177.176C326.893 178.312 326.51 179.863 326.179 181.349C323.627 192.884 322.154 204.625 321.78 216.425" stroke="#171717" stroke-width="2.718" stroke-linecap="round" stroke-linejoin="round"/>
<path d="M331.618 198.672C331.366 200.581 331.21 202.495 331.132 204.415L331.618 198.672Z" stroke="#171717" stroke-width="2.718" stroke-linecap="round" stroke-linejoin="round"/>
<path d="M343.06 216.887C351.053 212.961 357.63 206.715 361.901 198.992C360.4 194.321 351.787 198.346 349.137 203.124C347.707 205.702 343.837 205.08 342.887 204.025C346.701 195.181 351.138 186.648 351.125 177.041C351.119 172.802 348.806 173.753 347.787 174.072C347.481 174.167 345.825 174.758 345.162 178.671C343.062 186.995 341.48 192.76 339.385 201.089C341.663 192.142 343.506 173.753 340.196 173.753C335.225 172.802 332.76 189.885 331.619 198.672" stroke="#171717" stroke-width="2.718" stroke-linecap="round" stroke-linejoin="round"/>
<path d="M464.607 469.858C462.758 472.552 459.648 473.733 456.684 474.472C451.371 475.795 445.921 476.162 440.579 477.26C435.237 478.359 429.829 480.291 425.673 484.238C425.169 484.716 424.641 485.411 424.878 486.081C425.016 486.38 425.256 486.622 425.557 486.763C425.858 486.905 426.199 486.937 426.523 486.855C445.16 483.11 453.335 484.628 468.232 484.823" stroke="#171717" stroke-width="2.718" stroke-linecap="round" stroke-linejoin="round"/>
<path d="M159.341 436.171C157.937 444.034 156.694 451.923 155.614 459.838" stroke="#171717" stroke-width="2.718" stroke-linecap="round" stroke-linejoin="round"/>
<path d="M264.874 185.876H247.173V201.408H264.874V185.876Z" stroke="#171717" stroke-width="2.718" stroke-linecap="round" stroke-linejoin="round"/>
<path d="M288.835 187.542H274.393V200.782H288.835V187.542Z" stroke="#171717" stroke-width="2.718" stroke-linecap="round" stroke-linejoin="round"/>
<path d="M264.921 190.295C266.249 189.373 267.836 188.881 269.462 188.887C271.087 188.894 272.67 189.398 273.991 190.331" stroke="#171717" stroke-width="2.718" stroke-linecap="round" stroke-linejoin="round"/>
<path d="M261.806 227.929C260.433 228.158 259.028 228.13 257.665 227.846C256.438 227.634 255.292 227.097 254.352 226.292C253.873 225.846 253.488 225.31 253.219 224.718C252.95 224.124 252.803 223.485 252.786 222.836" stroke="#171717" stroke-width="2.718" stroke-linecap="round" stroke-linejoin="round"/>
<path d="M231.392 269.432C231.428 269.432 231.464 269.426 231.5 269.426C252.063 268.049 272.647 267.037 293.252 266.389H293.258" stroke="#171717" stroke-width="2.718" stroke-linecap="round" stroke-linejoin="round"/>
<path d="M482.516 405.964C486.655 415.075 488.937 424.898 489.232 434.874C489.479 434.343 489.725 433.811 489.965 433.279" stroke="#171717" stroke-width="2.718" stroke-linecap="round" stroke-linejoin="round"/>
<path d="M395.921 442.451C394.973 449.387 394.012 455.502 393.064 462.438" stroke="#171717" stroke-width="2.718" stroke-linecap="round" stroke-linejoin="round"/>
<path d="M337.888 305.633L339.431 319.012H347.906L350.448 329.709" stroke="url(#paint7_linear_917_114)" stroke-width="2.718" stroke-linecap="round" stroke-linejoin="round"/>
<path d="M271.266 294.824L262.325 299.829L264.602 304.555L257.518 310.394" stroke="url(#paint8_linear_917_114)" stroke-width="2.718" stroke-linecap="round" stroke-linejoin="round"/>
<path d="M197.919 292.044L205.122 296.215L199.614 302.609L206.393 310.394" stroke="url(#paint9_linear_917_114)" stroke-width="2.718" stroke-linecap="round" stroke-linejoin="round"/>
<path d="M147.076 322.07L135.636 324.639L137.754 336.527L128.715 337.917" stroke="url(#paint10_linear_917_114)" stroke-width="2.718" stroke-linecap="round" stroke-linejoin="round"/>
<path d="M144.534 373.226H153.29L148.912 387.577L157.479 388.517" stroke="url(#paint11_linear_917_114)" stroke-width="2.718" stroke-linecap="round" stroke-linejoin="round"/>
<path d="M210.065 395.745L216.844 388.517L202.156 382.623L206.392 378.508" stroke="url(#paint12_linear_917_114)" stroke-width="2.718" stroke-linecap="round" stroke-linejoin="round"/>
<path d="M236.003 335.693L239.697 331.801L227.86 324.639L231.478 320.124" stroke="url(#paint13_linear_917_114)" stroke-width="2.718" stroke-linecap="round" stroke-linejoin="round"/>
<path d="M325.873 337.917L321.157 339.864L325.873 345.98L318.705 350.935" stroke="url(#paint14_linear_917_114)" stroke-width="2.718" stroke-linecap="round" stroke-linejoin="round"/>
<path d="M352.142 381.932L357.847 374.338L365.418 378.135V364.052" stroke="url(#paint15_linear_917_114)" stroke-width="2.718" stroke-linecap="round" stroke-linejoin="round"/>
<path d="M193.682 448.003L199.896 452.444L209.5 446.624L216.844 453.574" stroke="url(#paint16_linear_917_114)" stroke-width="2.718" stroke-linecap="round" stroke-linejoin="round"/>
<path d="M86.1514 280.102C85.6876 276.789 89.1929 273.784 92.5776 274.07C95.9624 274.356 98.7236 277.244 99.5769 280.481C100.43 283.719 99.6717 287.187 98.301 290.248C93.8371 300.219 83.6889 306.286 74.4695 312.318C65.2498 318.35 55.7205 326.012 53.8926 336.76C53.4501 339.36 53.5176 342.131 54.6823 344.505C55.847 346.879 58.2717 348.763 60.9502 348.777C63.6287 348.79 66.2718 346.541 66.1654 343.907C66.0594 341.274 62.6542 339.225 60.4176 340.68" stroke="#171717" stroke-width="2.718" stroke-linecap="round" stroke-linejoin="round"/>
<path d="M153.254 260.246C151.863 255.696 150.843 250.929 151.395 246.208C151.947 241.487 154.273 236.782 158.357 234.247C164.09 230.687 171.587 232.108 178.136 230.391C187.017 228.062 193.668 219.245 193.362 210.204C193.296 208.247 192.813 206.092 191.188 204.962C189.041 203.468 185.883 204.571 184.207 206.563C180.397 211.096 183.07 218.852 188.57 221.159C194.069 223.465 200.83 220.93 204.464 216.258C208.098 211.585 208.993 205.295 208.229 199.459C207.535 194.433 205.737 189.615 202.963 185.34C200.188 181.065 196.501 177.435 192.159 174.702" stroke="#171717" stroke-width="2.718" stroke-linecap="round" stroke-linejoin="round"/>
<path d="M317.093 196.78C316.441 194.998 316.182 193.099 316.334 191.211C316.487 189.323 317.046 187.488 317.975 185.829" stroke="#171717" stroke-width="2.718" stroke-linecap="round" stroke-linejoin="round"/>
<path d="M388.173 233.484C384.712 231.975 381.736 229.565 379.565 226.513" stroke="#171717" stroke-width="2.718" stroke-linecap="round" stroke-linejoin="round"/>
<path d="M380.107 234.355C382.618 231.767 384.757 228.854 386.467 225.696L386.037 226.849" stroke="#171717" stroke-width="2.718" stroke-linecap="round" stroke-linejoin="round"/>
<path d="M375.869 262.296L372.48 256.458" stroke="#171717" stroke-width="2.718" stroke-linecap="round" stroke-linejoin="round"/>
<path d="M370.785 261.462L375.869 257.709" stroke="#171717" stroke-width="2.718" stroke-linecap="round" stroke-linejoin="round"/>
<path d="M401.276 193.546L390.709 191.341" stroke="#171717" stroke-width="2.718" stroke-linecap="round" stroke-linejoin="round"/>
<path d="M405.734 184.459C400.327 176.725 394.329 169.407 387.793 162.57" stroke="#171717" stroke-width="2.718" stroke-linecap="round" stroke-linejoin="round"/>
<path d="M413.288 178.866L411.479 167.628" stroke="#171717" stroke-width="2.718" stroke-linecap="round" stroke-linejoin="round"/>
<path d="M555.364 224.072C546.78 242.818 541.065 262.711 538.404 283.105C537.684 288.638 537.285 294.643 540.224 299.412C541.815 301.993 544.256 303.96 547.14 304.988C550.025 306.015 553.18 306.041 556.081 305.06C558.982 304.08 561.455 302.152 563.09 299.597C564.724 297.042 565.423 294.014 565.067 291.015C564.626 287.288 561.867 283.426 558.056 283.369C555.505 283.331 553.199 285.017 551.762 287.09C547.654 293.007 549.629 301.319 553.83 307.17C558.031 313.022 564.078 317.312 568.986 322.603C573.895 327.894 577.802 335.022 576.18 342.007C575.65 344.276 574.458 346.514 572.423 347.703C570.387 348.892 567.437 348.696 565.992 346.856C564.547 345.015 565.55 341.711 567.892 341.387" stroke="#F59E0B" stroke-width="2.718" stroke-linecap="round" stroke-linejoin="round"/>
<path d="M576.71 238.663L574.446 228.655" stroke="#171717" stroke-width="2.718" stroke-linecap="round" stroke-linejoin="round"/>
<path d="M570.491 234.251L579.232 232.773" stroke="#171717" stroke-width="2.718" stroke-linecap="round" stroke-linejoin="round"/>
<path d="M573.342 277.025L571.918 269.52" stroke="#171717" stroke-width="2.718" stroke-linecap="round" stroke-linejoin="round"/>
<path d="M568.797 273.629C571.302 273.901 573.836 273.648 576.233 272.884" stroke="#171717" stroke-width="2.718" stroke-linecap="round" stroke-linejoin="round"/>
<path d="M89.5045 425.093L82.6238 418.524" stroke="#171717" stroke-width="2.718" stroke-linecap="round" stroke-linejoin="round"/>
<path d="M82.8462 426.155C84.6959 424.027 86.3482 421.739 87.7825 419.321" stroke="#171717" stroke-width="2.718" stroke-linecap="round" stroke-linejoin="round"/>
<path d="M96.1633 393.395C94.0532 392.456 92.1962 391.043 90.7407 389.27" stroke="#171717" stroke-width="2.718" stroke-linecap="round" stroke-linejoin="round"/>
<path d="M90.6499 394.445C92.1273 392.189 94.0253 390.23 96.2441 388.67" stroke="#171717" stroke-width="2.718" stroke-linecap="round" stroke-linejoin="round"/>
<path d="M81.7843 294.039L77.2236 290.192" stroke="#171717" stroke-width="2.718" stroke-linecap="round" stroke-linejoin="round"/>
<path d="M76.7222 295.639C78.5573 293.704 80.0274 291.463 81.0655 289.021" stroke="#171717" stroke-width="2.718" stroke-linecap="round" stroke-linejoin="round"/>
<path d="M209.487 228.084L214.292 224.195" stroke="#171717" stroke-width="2.718" stroke-linecap="round" stroke-linejoin="round"/>
<path d="M213.433 230.333L210.344 223.654" stroke="#171717" stroke-width="2.718" stroke-linecap="round" stroke-linejoin="round"/>
<path d="M165.029 218.021L162.048 211.418" stroke="#171717" stroke-width="2.718" stroke-linecap="round" stroke-linejoin="round"/>
<path d="M159.535 216.761L166.562 213.357" stroke="#171717" stroke-width="2.718" stroke-linecap="round" stroke-linejoin="round"/>
<path d="M244.509 129.966C246.513 134.209 247.974 138.681 248.857 143.278C251.881 141.234 255.449 140.111 259.116 140.051C259.823 140.04 260.733 139.928 260.904 139.252C260.947 138.984 260.916 138.709 260.816 138.456L257.042 125.852" stroke="#F59E0B" stroke-width="2.718" stroke-linecap="round" stroke-linejoin="round"/>
<path d="M256.321 126.312C258.676 119.57 261.036 112.177 258.566 105.474C257.819 103.454 256.659 101.606 255.159 100.044C253.658 98.4822 251.849 97.2387 249.841 96.391C247.834 95.5433 245.672 95.109 243.488 95.1148C241.304 95.1207 239.144 95.5667 237.141 96.4255C235.139 97.2843 233.336 98.537 231.845 100.107C230.353 101.678 229.203 103.532 228.467 105.556C227.731 107.58 227.424 109.731 227.564 111.877C227.705 114.022 228.29 116.116 229.284 118.031C232.377 123.965 238.864 127.323 245.114 129.905" stroke="#F59E0B" stroke-width="2.718" stroke-linecap="round" stroke-linejoin="round"/>
<path d="M244.504 129.634C248.033 128.11 251.75 127.045 255.56 126.468" stroke="#F59E0B" stroke-width="2.718" stroke-linecap="round" stroke-linejoin="round"/>
<path d="M247.96 134.525L255.545 131.639" stroke="#F59E0B" stroke-width="2.718" stroke-linecap="round" stroke-linejoin="round"/>
<path d="M252.504 125.526L251.113 109.623C250.516 110.979 249.846 112.427 248.547 113.164C247.248 113.901 245.168 113.425 244.908 111.969C244.943 112.636 244.747 113.296 244.354 113.841C243.96 114.387 243.391 114.786 242.739 114.973C242.087 115.162 241.39 115.128 240.76 114.878C240.129 114.627 239.603 114.175 239.266 113.595L244.936 123.211" stroke="#F59E0B" stroke-width="2.718" stroke-linecap="round" stroke-linejoin="round"/>
<path d="M219.957 114.585L215.161 114.233" stroke="#F59E0B" stroke-width="2.718" stroke-linecap="round" stroke-linejoin="round"/>
<path d="M222.061 96.2534L210.344 88.264" stroke="#F59E0B" stroke-width="2.718" stroke-linecap="round" stroke-linejoin="round"/>
<path d="M242.74 88.2386L242.289 83.2495" stroke="#F59E0B" stroke-width="2.718" stroke-linecap="round" stroke-linejoin="round"/>
<path d="M257.726 93.7696L263.676 84.0535" stroke="#F59E0B" stroke-width="2.718" stroke-linecap="round" stroke-linejoin="round"/>
<path d="M264.3 108.597L268.82 108.342" stroke="#F59E0B" stroke-width="2.718" stroke-linecap="round" stroke-linejoin="round"/>
<path d="M455.812 126.466L450.493 143.278L436.645 129.633L455.812 126.466Z" stroke="#171717" stroke-width="2.718" stroke-linecap="round" stroke-linejoin="round"/>
<path d="M495.351 151.849L508.061 163.722V143.278L495.351 151.849Z" stroke="#171717" stroke-width="2.718" stroke-linecap="round" stroke-linejoin="round"/>
<path d="M339.225 140.622L340.546 145.434C340.585 145.58 340.579 145.733 340.528 145.875C340.476 146.016 340.381 146.139 340.257 146.226C340.132 146.313 339.983 146.361 339.83 146.362C339.678 146.363 339.528 146.318 339.401 146.234L335.22 143.422C335.099 143.34 334.955 143.295 334.807 143.294C334.659 143.292 334.514 143.334 334.39 143.413L330.15 146.136C330.022 146.218 329.872 146.26 329.719 146.254C329.567 146.25 329.419 146.2 329.296 146.11C329.173 146.02 329.082 145.896 329.033 145.753C328.984 145.61 328.981 145.456 329.024 145.312L330.448 140.53C330.491 140.39 330.49 140.241 330.446 140.101C330.401 139.962 330.317 139.839 330.201 139.747L326.259 136.617C326.141 136.523 326.054 136.395 326.011 136.25C325.968 136.106 325.971 135.952 326.02 135.809C326.069 135.667 326.161 135.543 326.284 135.453C326.407 135.363 326.555 135.313 326.707 135.309L331.769 135.164C331.917 135.16 332.06 135.113 332.18 135.029C332.301 134.945 332.393 134.827 332.445 134.691L334.251 130.035C334.306 129.894 334.402 129.774 334.529 129.689C334.655 129.604 334.805 129.559 334.957 129.561C335.11 129.562 335.26 129.61 335.384 129.697C335.509 129.785 335.603 129.907 335.654 130.05L337.358 134.745C337.407 134.881 337.497 135.001 337.616 135.088C337.735 135.174 337.876 135.224 338.024 135.232L343.081 135.483C343.234 135.491 343.38 135.544 343.502 135.636C343.622 135.728 343.712 135.854 343.757 135.998C343.803 136.141 343.803 136.295 343.757 136.439C343.711 136.582 343.622 136.709 343.5 136.801L339.492 139.846C339.374 139.934 339.286 140.056 339.238 140.194C339.191 140.332 339.187 140.482 339.225 140.622Z" fill="#F59E0B"/>
<path d="M305.233 116.066L306.217 119.652C306.247 119.76 306.243 119.875 306.204 119.981C306.165 120.086 306.095 120.178 306.001 120.244C305.909 120.308 305.798 120.344 305.683 120.345C305.57 120.346 305.458 120.312 305.364 120.249L302.246 118.152C302.154 118.091 302.047 118.058 301.937 118.056C301.827 118.056 301.719 118.086 301.627 118.146L298.464 120.179C298.368 120.24 298.256 120.272 298.142 120.268C298.028 120.265 297.918 120.227 297.826 120.16C297.734 120.094 297.666 120 297.629 119.894C297.594 119.787 297.592 119.672 297.624 119.565L298.684 115.998C298.715 115.894 298.714 115.783 298.681 115.68C298.648 115.576 298.585 115.485 298.499 115.416L295.56 113.083C295.47 113.013 295.405 112.917 295.372 112.81C295.34 112.702 295.342 112.587 295.378 112.48C295.414 112.374 295.483 112.28 295.574 112.213C295.666 112.146 295.776 112.108 295.891 112.105L299.667 111.997C299.777 111.994 299.884 111.959 299.973 111.896C300.063 111.834 300.132 111.746 300.172 111.644L301.518 108.171C301.559 108.067 301.631 107.977 301.726 107.914C301.82 107.851 301.931 107.817 302.045 107.819C302.159 107.82 302.27 107.856 302.362 107.92C302.455 107.986 302.526 108.077 302.564 108.183L303.835 111.683C303.872 111.785 303.939 111.874 304.028 111.939C304.116 112.003 304.222 112.041 304.333 112.046L308.104 112.234C308.218 112.24 308.327 112.28 308.417 112.349C308.507 112.417 308.573 112.512 308.607 112.619C308.642 112.726 308.641 112.84 308.607 112.947C308.573 113.054 308.506 113.148 308.416 113.217L305.427 115.488C305.34 115.554 305.275 115.645 305.241 115.748C305.206 115.85 305.203 115.961 305.233 116.066Z" fill="#171717"/>
<path d="M389.528 300.621L386.993 294.779" stroke="#171717" stroke-width="2.718" stroke-linecap="round" stroke-linejoin="round"/>
<path d="M359.345 286.901L364.005 282.728" stroke="#171717" stroke-width="2.718" stroke-linecap="round" stroke-linejoin="round"/>
<path d="M344.13 261.42C342.341 259.755 341.105 257.598 340.582 255.229" stroke="#171717" stroke-width="2.718" stroke-linecap="round" stroke-linejoin="round"/>
<path d="M323.718 238.874C324.731 238.318 325.611 237.555 326.301 236.637C326.991 235.72 327.474 234.667 327.717 233.551" stroke="#171717" stroke-width="2.718" stroke-linecap="round" stroke-linejoin="round"/>
<path d="M474.151 307.759L470.758 301.505" stroke="#171717" stroke-width="2.718" stroke-linecap="round" stroke-linejoin="round"/>
<path d="M446.77 327.098L451.761 322.824" stroke="#171717" stroke-width="2.718" stroke-linecap="round" stroke-linejoin="round"/>
<path d="M469.771 281.439C467.222 290.591 461.297 298.477 453.155 303.56C451.176 304.784 448.929 305.86 446.603 305.627C443.196 305.285 440.625 302.092 440.061 298.767C439.497 295.442 440.531 292.057 441.86 288.95" stroke="#171717" stroke-width="2.718" stroke-linecap="round" stroke-linejoin="round"/>
<path d="M433.492 356.545L430.102 351.541" stroke="#171717" stroke-width="2.718" stroke-linecap="round" stroke-linejoin="round"/>
<path d="M462.699 363.191L467.337 358.581" stroke="#171717" stroke-width="2.718" stroke-linecap="round" stroke-linejoin="round"/>
<path d="M443.434 391.828L439.932 387.751" stroke="#171717" stroke-width="2.718" stroke-linecap="round" stroke-linejoin="round"/>
<path d="M503.412 331.119L508.493 326.946" stroke="#171717" stroke-width="2.718" stroke-linecap="round" stroke-linejoin="round"/>
<path d="M509.33 364.052L504.245 358.213" stroke="#171717" stroke-width="2.718" stroke-linecap="round" stroke-linejoin="round"/>
<path d="M531.365 366.554L536.874 364.467" stroke="#171717" stroke-width="2.718" stroke-linecap="round" stroke-linejoin="round"/>
<path d="M541.063 400.783L536.4 394.947" stroke="#171717" stroke-width="2.718" stroke-linecap="round" stroke-linejoin="round"/>
<path d="M514.417 416.597L519.502 412.427" stroke="#171717" stroke-width="2.718" stroke-linecap="round" stroke-linejoin="round"/>
<path d="M545.135 438.182L542.505 432.803" stroke="#171717" stroke-width="2.718" stroke-linecap="round" stroke-linejoin="round"/>
<path d="M513.994 453.296C516.237 452.972 518.317 451.949 519.925 450.376" stroke="#171717" stroke-width="2.718" stroke-linecap="round" stroke-linejoin="round"/>
<path d="M491.182 465.779L489.04 460.784" stroke="#171717" stroke-width="2.718" stroke-linecap="round" stroke-linejoin="round"/>
<path d="M516.962 477.483L516.113 471.645" stroke="#171717" stroke-width="2.718" stroke-linecap="round" stroke-linejoin="round"/>
<g opacity="0.1">
<path d="M288.476 172.974C286.189 171.524 283.621 171.936 281.019 171.956C278.013 171.978 275.001 171.88 272.001 171.708C265.988 171.364 260.01 169.639 254.011 169.588C249.078 169.546 244.262 171.295 241.313 175.336C239.851 177.339 239.13 179.619 238.332 181.929C237.765 183.758 236.583 185.344 234.979 186.423C231.22 189.32 235.31 195.422 239.531 194.121C244.045 192.729 246.177 188.594 247.493 184.416C248.119 182.429 248.288 179.871 250.226 178.677C252.229 177.438 255.022 177.771 257.235 177.94C262.812 178.365 268.328 178.91 273.934 178.829C278.387 178.764 285.486 179.403 288.89 176.143C289.107 175.922 289.271 175.656 289.369 175.365C289.468 175.074 289.498 174.765 289.458 174.46C289.418 174.156 289.31 173.864 289.139 173.607C288.969 173.349 288.742 173.133 288.476 172.974V172.974Z" fill="#171717"/>
</g>
<g opacity="0.1">
<path d="M438.972 214.731C443.916 215.415 448.141 212.807 451.389 209.292L444.188 208.379C448.857 215.234 454.733 220.936 462.18 224.849C465.708 226.709 469.432 228.184 473.285 229.247C476.995 230.261 482.574 231.933 485.202 228.152C487.434 224.941 484.685 221.771 481.431 220.783C477.627 219.631 473.774 219.067 470.107 217.425C462.773 214.135 456.353 209.156 451.389 202.907C449.986 201.128 446.305 201.163 444.905 202.907C442.791 205.542 439.92 206.778 437.423 208.956C435.598 210.547 436.368 214.368 438.972 214.729V214.731Z" fill="#171717"/>
</g>
<g opacity="0.1">
<path d="M315.567 217.945C310.963 219.36 311.293 225.516 311.078 229.439C310.834 234.528 310.963 239.627 311.462 244.698C312.368 254.507 314.21 264.856 317.858 274.063C320.212 280.007 329.613 277.803 327.795 271.366C325.064 261.688 322.586 252.295 321.537 242.263C321.027 237.38 320.941 232.506 320.791 227.604C320.704 224.739 321.047 216.258 315.567 217.945L315.567 217.945Z" fill="#171717"/>
</g>
<g opacity="0.1">
<path d="M367.48 322.886C369.224 325.874 372.139 326.572 375.393 327.052C378.877 327.566 382.367 327.999 385.879 328.272C392.835 328.813 399.803 329.016 406.777 328.942C413.646 328.869 413.667 318.354 406.777 318.427C400.019 318.5 393.268 318.311 386.531 317.807C383.277 317.563 380.025 317.299 376.774 317.014C373.448 316.72 370.56 316.603 367.989 318.997C367.487 319.503 367.166 320.157 367.074 320.858C366.982 321.559 367.124 322.271 367.48 322.886Z" fill="#171717"/>
</g>
<g opacity="0.1">
<path d="M450.56 284.137C446.045 284.175 441.437 288.708 438.303 291.571C434.603 295.111 431.327 299.056 428.537 303.329C422.623 312.034 418.655 321.876 416.895 332.203C414.782 344.807 415.652 357.316 415.154 370.011C414.944 375.379 414.636 380.705 413.468 385.968C412.903 388.603 412.132 391.191 411.162 393.71C410.123 396.349 408.517 398.682 407.391 401.267C405.504 405.602 410.559 410.485 414.463 406.639C418.282 402.876 420.504 397.233 422.168 392.25C423.835 386.961 424.933 381.514 425.442 375.999C426.753 364.012 425.661 351.837 426.184 339.803C426.694 329.488 429.666 319.437 434.856 310.462C437.37 306.119 440.326 302.038 443.679 298.284C445.246 296.5 446.825 294.767 448.499 293.074C450.251 291.301 452.223 289.696 452.988 287.276C453.086 286.908 453.098 286.523 453.023 286.15C452.947 285.777 452.786 285.425 452.552 285.123C452.318 284.82 452.017 284.574 451.671 284.404C451.326 284.233 450.945 284.141 450.558 284.137H450.56Z" fill="#171717"/>
</g>
<g opacity="0.1">
<path d="M481.498 345.424C481.852 348.466 482.082 351.031 483.486 353.86C484.686 356.281 486.136 358.6 487.405 360.99C489.893 365.685 492.383 370.422 494.409 375.336C498.61 385.527 501.106 396.548 499.616 407.567C496.517 430.487 479.936 448.637 464.901 465.177C460.385 470.145 467.795 477.506 472.367 472.526C489.167 454.225 506.817 434.375 510.35 408.997C512.036 396.885 509.863 384.854 505.296 373.558C502.975 367.772 500.23 362.16 497.081 356.766C495.526 354.116 494.016 351.337 492.224 348.833C490.373 346.245 488.239 344.813 485.655 343.077C484.031 341.987 481.262 343.408 481.496 345.425L481.498 345.424Z" fill="#171717"/>
</g>
<g opacity="0.1">
<path d="M421.897 491.835C425.335 494.68 429.88 493.881 434.027 493.614C438.937 493.298 443.839 492.954 448.763 492.982C458.644 493.038 468.366 494.793 478.099 496.291C494.486 498.812 514.174 501.176 528.317 490.667C531.532 488.278 528.861 483.502 525.119 485.283C508.893 493.007 491.76 489.917 474.819 486.692C465.551 484.928 456.296 483.823 446.838 484.123C442.147 484.271 437.467 484.652 432.815 485.266C428.716 485.808 424.227 486.128 421.613 489.687C421.412 490.026 421.331 490.419 421.382 490.808C421.433 491.197 421.614 491.558 421.895 491.835H421.897Z" fill="#171717"/>
</g>
</g>
<defs>
<linearGradient id="paint0_linear_917_114" x1="483.992" y1="281.523" x2="483.992" y2="493.642" gradientUnits="userSpaceOnUse">
<stop stop-color="#4A9FFF"/>
<stop offset="1" stop-color="#2A67F7"/>
</linearGradient>
<linearGradient id="paint1_linear_917_114" x1="459.339" y1="517.937" x2="459.339" y2="526.692" gradientUnits="userSpaceOnUse">
<stop stop-color="#4A9FFF"/>
<stop offset="1" stop-color="#2A67F7"/>
</linearGradient>
<linearGradient id="paint2_linear_917_114" x1="346.637" y1="442.451" x2="346.637" y2="483.742" gradientUnits="userSpaceOnUse">
<stop stop-color="#4A9FFF"/>
<stop offset="1" stop-color="#2A67F7"/>
</linearGradient>
<linearGradient id="paint3_linear_917_114" x1="358.127" y1="217.286" x2="358.127" y2="329.71" gradientUnits="userSpaceOnUse">
<stop stop-color="#4A9FFF"/>
<stop offset="1" stop-color="#2A67F7"/>
</linearGradient>
<linearGradient id="paint4_linear_917_114" x1="294.803" y1="359.327" x2="294.803" y2="404.54" gradientUnits="userSpaceOnUse">
<stop stop-color="#4A9FFF"/>
<stop offset="1" stop-color="#2A67F7"/>
</linearGradient>
<linearGradient id="paint5_linear_917_114" x1="262.483" y1="250.497" x2="262.483" y2="269.426" gradientUnits="userSpaceOnUse">
<stop stop-color="#4A9FFF"/>
<stop offset="1" stop-color="#2A67F7"/>
</linearGradient>
<linearGradient id="paint6_linear_917_114" x1="135.638" y1="483.742" x2="135.638" y2="507.303" gradientUnits="userSpaceOnUse">
<stop stop-color="#4A9FFF"/>
<stop offset="1" stop-color="#2A67F7"/>
</linearGradient>
<linearGradient id="paint7_linear_917_114" x1="344.168" y1="305.633" x2="344.168" y2="329.709" gradientUnits="userSpaceOnUse">
<stop stop-color="#4A9FFF"/>
<stop offset="1" stop-color="#2A67F7"/>
</linearGradient>
<linearGradient id="paint8_linear_917_114" x1="264.392" y1="294.824" x2="264.392" y2="310.394" gradientUnits="userSpaceOnUse">
<stop stop-color="#4A9FFF"/>
<stop offset="1" stop-color="#2A67F7"/>
</linearGradient>
<linearGradient id="paint9_linear_917_114" x1="202.156" y1="292.044" x2="202.156" y2="310.394" gradientUnits="userSpaceOnUse">
<stop stop-color="#4A9FFF"/>
<stop offset="1" stop-color="#2A67F7"/>
</linearGradient>
<linearGradient id="paint10_linear_917_114" x1="137.895" y1="322.07" x2="137.895" y2="337.917" gradientUnits="userSpaceOnUse">
<stop stop-color="#4A9FFF"/>
<stop offset="1" stop-color="#2A67F7"/>
</linearGradient>
<linearGradient id="paint11_linear_917_114" x1="151.006" y1="373.226" x2="151.006" y2="388.517" gradientUnits="userSpaceOnUse">
<stop stop-color="#4A9FFF"/>
<stop offset="1" stop-color="#2A67F7"/>
</linearGradient>
<linearGradient id="paint12_linear_917_114" x1="209.5" y1="378.508" x2="209.5" y2="395.745" gradientUnits="userSpaceOnUse">
<stop stop-color="#4A9FFF"/>
<stop offset="1" stop-color="#2A67F7"/>
</linearGradient>
<linearGradient id="paint13_linear_917_114" x1="233.778" y1="320.124" x2="233.778" y2="335.693" gradientUnits="userSpaceOnUse">
<stop stop-color="#4A9FFF"/>
<stop offset="1" stop-color="#2A67F7"/>
</linearGradient>
<linearGradient id="paint14_linear_917_114" x1="322.289" y1="337.917" x2="322.289" y2="350.935" gradientUnits="userSpaceOnUse">
<stop stop-color="#4A9FFF"/>
<stop offset="1" stop-color="#2A67F7"/>
</linearGradient>
<linearGradient id="paint15_linear_917_114" x1="358.78" y1="364.052" x2="358.78" y2="381.932" gradientUnits="userSpaceOnUse">
<stop stop-color="#4A9FFF"/>
<stop offset="1" stop-color="#2A67F7"/>
</linearGradient>
<linearGradient id="paint16_linear_917_114" x1="205.263" y1="446.624" x2="205.263" y2="453.574" gradientUnits="userSpaceOnUse">
<stop stop-color="#4A9FFF"/>
<stop offset="1" stop-color="#2A67F7"/>
</linearGradient>
</defs>
</svg>
