<svg width="41" height="41" viewBox="0 0 41 41" fill="none" xmlns="http://www.w3.org/2000/svg">
<g clip-path="url(#clip0_205_629)">
<path d="M35.3994 0H5.6006C2.50747 0 0 2.50747 0 5.6006V35.3994C0 38.4925 2.50747 41 5.6006 41H35.3994C38.4925 41 41 38.4925 41 35.3994V5.6006C41 2.50747 38.4925 0 35.3994 0Z" fill="white"/>
<path d="M26.54 13.1911C26.5278 14.8913 25.9511 16.5392 24.9005 17.876C23.8499 19.2127 22.3849 20.1625 20.7357 20.5761C20.5084 20.6329 20.2711 20.6369 20.042 20.5879C19.8129 20.5388 19.5981 20.438 19.4139 20.2931C19.2298 20.1483 19.0813 19.9632 18.9797 19.752C18.8781 19.5409 18.8262 19.3093 18.8279 19.075V18.8928C18.8331 18.4355 18.9664 17.9889 19.2125 17.6034C19.4587 17.218 19.8079 16.9092 20.2205 16.7121C21.4127 16.1335 22.4336 15.0206 22.6468 13.7965C22.6641 13.8034 22.6819 13.8097 22.6996 13.8157L22.7042 13.1615C22.7116 12.1445 22.3148 11.1663 21.6009 10.4419C20.8871 9.71759 19.9147 9.30648 18.8978 9.29905C17.8808 9.29162 16.9026 9.68848 16.1783 10.4023C15.4539 11.1162 15.0428 12.0885 15.0354 13.1054L14.8964 32.2465C14.885 33.8505 13.0441 34.7366 11.7736 33.7576L11.7381 33.7303C11.5252 33.5644 11.3534 33.3517 11.236 33.1087C11.1186 32.8656 11.0587 32.5989 11.0611 32.329L11.201 13.0799C11.2157 11.046 12.0378 9.1013 13.4864 7.67354C14.2037 6.96658 15.0532 6.40783 15.9864 6.02918C16.9196 5.65053 17.9183 5.45939 18.9254 5.46669C19.9324 5.47399 20.9282 5.67958 21.8559 6.07172C22.7835 6.46385 23.6248 7.03486 24.3318 7.75214C25.0387 8.46942 25.5975 9.31891 25.9761 10.2521C26.3548 11.1853 26.5459 12.184 26.5386 13.1911H26.54Z" fill="#172554"/>
<path d="M29.1555 32.2273C29.1555 32.482 29.1054 32.7342 29.0079 32.9695C28.9104 33.2048 28.7676 33.4186 28.5875 33.5986C28.4074 33.7787 28.1936 33.9216 27.9584 34.019C27.7231 34.1165 27.4709 34.1666 27.2162 34.1666H20.3027C20.2695 34.1666 20.2357 34.1666 20.2025 34.1666C19.2044 34.1211 18.4049 33.3731 18.3538 32.4415C18.3538 32.4105 18.3516 32.3786 18.3516 32.3476V24.4884C18.3516 23.9688 18.5579 23.4706 18.9253 23.1032C19.2927 22.7359 19.7909 22.5295 20.3105 22.5295H20.5524C21.0712 22.531 21.5683 22.738 21.935 23.1051C22.3016 23.4722 22.508 23.9695 22.509 24.4884V28.3492C22.509 28.6039 22.5591 28.856 22.6566 29.0913C22.7541 29.3265 22.8969 29.5403 23.077 29.7203C23.2571 29.9004 23.4709 30.0432 23.7062 30.1406C23.9414 30.238 24.1936 30.2881 24.4483 30.288H27.2185C27.7324 30.2887 28.2251 30.4932 28.5883 30.8569C28.9515 31.2205 29.1555 31.7134 29.1555 32.2273Z" fill="#292524"/>
<path d="M26.3974 28.3369C27.907 28.3369 29.1307 27.1132 29.1307 25.6036C29.1307 24.094 27.907 22.8702 26.3974 22.8702C24.8878 22.8702 23.6641 24.094 23.6641 25.6036C23.6641 27.1132 24.8878 28.3369 26.3974 28.3369Z" fill="#F59E0B"/>
</g>
<defs>
<clipPath id="clip0_205_629">
<rect width="41" height="41" fill="white"/>
</clipPath>
</defs>
</svg>
